<mxfile host="drawio-plugin" modified="2021-03-28T09:13:40.296Z" agent="5.0 (Macintosh; Intel Mac OS X 10_16_0) AppleWebKit/537.36 (KHTML, like Gecko) Chrome/84.0.4147.105 Safari/537.36" etag="i3mwnMmkyzieFuBHAQDh" version="13.7.9" type="embed"><diagram id="rjR9wzhXq8Hpp7HeJRx-" name="Page-1"><mxGraphModel dx="925" dy="661" grid="1" gridSize="10" guides="1" tooltips="1" connect="1" arrows="1" fold="1" page="1" pageScale="1" pageWidth="850" pageHeight="1100" math="0" shadow="0"><root><mxCell id="0"/><mxCell id="1" parent="0"/><mxCell id="122" value="&lt;b&gt;Application&lt;br&gt;Replica 2&lt;br&gt;&lt;br&gt;&lt;br&gt;&lt;br&gt;&lt;br&gt;&lt;br&gt;&lt;br&gt;&lt;br&gt;&lt;br&gt;&lt;br&gt;&lt;/b&gt;" style="rounded=1;whiteSpace=wrap;html=1;" vertex="1" parent="1"><mxGeometry x="425" y="230" width="330" height="200" as="geometry"/></mxCell><mxCell id="121" value="&lt;b&gt;Application&lt;br&gt;Replica 1&lt;br&gt;&lt;br&gt;&lt;br&gt;&lt;br&gt;&lt;br&gt;&lt;br&gt;&lt;br&gt;&lt;br&gt;&lt;br&gt;&lt;br&gt;&lt;/b&gt;" style="rounded=1;whiteSpace=wrap;html=1;" vertex="1" parent="1"><mxGeometry x="10" y="230" width="380" height="200" as="geometry"/></mxCell><mxCell id="97" value="&lt;b&gt;&lt;font style=&quot;font-size: 20px&quot;&gt;Broker&lt;/font&gt;&lt;/b&gt;&lt;br&gt;&lt;br&gt;&lt;br&gt;&lt;br&gt;" style="ellipse;whiteSpace=wrap;html=1;" parent="1" vertex="1"><mxGeometry x="60" y="30" width="670" height="170" as="geometry"/></mxCell><mxCell id="98" style="edgeStyle=orthogonalEdgeStyle;rounded=0;orthogonalLoop=1;jettySize=auto;html=1;entryX=0.5;entryY=0;entryDx=0;entryDy=0;curved=1;" parent="1" source="93" target="102" edge="1"><mxGeometry relative="1" as="geometry"><mxPoint x="140" y="250" as="targetPoint"/></mxGeometry></mxCell><mxCell id="99" style="edgeStyle=orthogonalEdgeStyle;curved=1;rounded=0;orthogonalLoop=1;jettySize=auto;html=1;entryX=0.5;entryY=0;entryDx=0;entryDy=0;" parent="1" source="93" target="104" edge="1"><mxGeometry relative="1" as="geometry"><mxPoint x="520" y="270" as="targetPoint"/></mxGeometry></mxCell><mxCell id="93" value="Group1" style="ellipse;whiteSpace=wrap;html=1;" parent="1" vertex="1"><mxGeometry x="130" y="80" width="120" height="80" as="geometry"/></mxCell><mxCell id="100" style="edgeStyle=orthogonalEdgeStyle;curved=1;rounded=0;orthogonalLoop=1;jettySize=auto;html=1;" parent="1" source="94" target="103" edge="1"><mxGeometry relative="1" as="geometry"><mxPoint x="260" y="250" as="targetPoint"/></mxGeometry></mxCell><mxCell id="101" style="edgeStyle=orthogonalEdgeStyle;curved=1;rounded=0;orthogonalLoop=1;jettySize=auto;html=1;" parent="1" source="94" target="105" edge="1"><mxGeometry relative="1" as="geometry"><mxPoint x="640" y="250" as="targetPoint"/></mxGeometry></mxCell><mxCell id="94" value="Group2" style="ellipse;whiteSpace=wrap;html=1;" parent="1" vertex="1"><mxGeometry x="470" y="80" width="120" height="80" as="geometry"/></mxCell><mxCell id="112" style="edgeStyle=orthogonalEdgeStyle;curved=1;rounded=0;orthogonalLoop=1;jettySize=auto;html=1;entryX=0;entryY=0.5;entryDx=0;entryDy=0;" parent="1" source="102" target="106" edge="1"><mxGeometry relative="1" as="geometry"/></mxCell><mxCell id="114" style="edgeStyle=orthogonalEdgeStyle;curved=1;rounded=0;orthogonalLoop=1;jettySize=auto;html=1;entryX=0.5;entryY=0;entryDx=0;entryDy=0;" parent="1" source="102" target="107" edge="1"><mxGeometry relative="1" as="geometry"/></mxCell><mxCell id="102" value="Sink&lt;br&gt;G1" style="rhombus;whiteSpace=wrap;html=1;" parent="1" vertex="1"><mxGeometry x="100" y="280" width="80" height="80" as="geometry"/></mxCell><mxCell id="113" style="edgeStyle=orthogonalEdgeStyle;curved=1;rounded=0;orthogonalLoop=1;jettySize=auto;html=1;entryX=1;entryY=0;entryDx=0;entryDy=0;" parent="1" source="103" target="106" edge="1"><mxGeometry relative="1" as="geometry"><Array as="points"><mxPoint x="153" y="350"/></Array></mxGeometry></mxCell><mxCell id="115" style="edgeStyle=orthogonalEdgeStyle;curved=1;rounded=0;orthogonalLoop=1;jettySize=auto;html=1;entryX=0.5;entryY=0;entryDx=0;entryDy=0;" parent="1" source="103" target="107" edge="1"><mxGeometry relative="1" as="geometry"/></mxCell><mxCell id="116" style="edgeStyle=orthogonalEdgeStyle;curved=1;rounded=0;orthogonalLoop=1;jettySize=auto;html=1;entryX=1;entryY=0.5;entryDx=0;entryDy=0;" parent="1" source="103" target="108" edge="1"><mxGeometry relative="1" as="geometry"/></mxCell><mxCell id="103" value="Sink&lt;br&gt;G2" style="rhombus;whiteSpace=wrap;html=1;" parent="1" vertex="1"><mxGeometry x="220" y="280" width="80" height="80" as="geometry"/></mxCell><mxCell id="117" style="edgeStyle=orthogonalEdgeStyle;curved=1;rounded=0;orthogonalLoop=1;jettySize=auto;html=1;entryX=0.5;entryY=0;entryDx=0;entryDy=0;" parent="1" source="104" target="109" edge="1"><mxGeometry relative="1" as="geometry"/></mxCell><mxCell id="119" style="edgeStyle=orthogonalEdgeStyle;curved=1;rounded=0;orthogonalLoop=1;jettySize=auto;html=1;entryX=0.5;entryY=0;entryDx=0;entryDy=0;" parent="1" source="104" target="110" edge="1"><mxGeometry relative="1" as="geometry"/></mxCell><mxCell id="104" value="Sink&lt;br&gt;G1" style="rhombus;whiteSpace=wrap;html=1;" parent="1" vertex="1"><mxGeometry x="480" y="280" width="80" height="80" as="geometry"/></mxCell><mxCell id="118" style="edgeStyle=orthogonalEdgeStyle;curved=1;rounded=0;orthogonalLoop=1;jettySize=auto;html=1;entryX=0.5;entryY=0;entryDx=0;entryDy=0;" parent="1" source="105" target="111" edge="1"><mxGeometry relative="1" as="geometry"/></mxCell><mxCell id="120" style="edgeStyle=orthogonalEdgeStyle;curved=1;rounded=0;orthogonalLoop=1;jettySize=auto;html=1;entryX=1;entryY=0.5;entryDx=0;entryDy=0;" parent="1" source="105" target="109" edge="1"><mxGeometry relative="1" as="geometry"/></mxCell><mxCell id="105" value="Sink&lt;br&gt;G2" style="rhombus;whiteSpace=wrap;html=1;" parent="1" vertex="1"><mxGeometry x="600" y="280" width="80" height="80" as="geometry"/></mxCell><mxCell id="106" value="User1&lt;br&gt;sub1" style="ellipse;whiteSpace=wrap;html=1;" parent="1" vertex="1"><mxGeometry x="60" y="460" width="50" height="50" as="geometry"/></mxCell><mxCell id="107" value="User2" style="ellipse;whiteSpace=wrap;html=1;" parent="1" vertex="1"><mxGeometry x="180" y="460" width="50" height="50" as="geometry"/></mxCell><mxCell id="108" value="User3" style="ellipse;whiteSpace=wrap;html=1;" parent="1" vertex="1"><mxGeometry x="290" y="460" width="50" height="50" as="geometry"/></mxCell><mxCell id="109" value="User1&lt;br&gt;sub2" style="ellipse;whiteSpace=wrap;html=1;" parent="1" vertex="1"><mxGeometry x="480" y="460" width="50" height="50" as="geometry"/></mxCell><mxCell id="110" value="User4" style="ellipse;whiteSpace=wrap;html=1;" parent="1" vertex="1"><mxGeometry x="590" y="460" width="50" height="50" as="geometry"/></mxCell><mxCell id="111" value="User5" style="ellipse;whiteSpace=wrap;html=1;" parent="1" vertex="1"><mxGeometry x="680" y="460" width="50" height="50" as="geometry"/></mxCell></root></mxGraphModel></diagram></mxfile>